<?xml version="1.0" encoding="UTF-8"?>
<svg id="Layer_1" data-name="Layer 1" xmlns="http://www.w3.org/2000/svg" viewBox="0 0 89.37 67.73">
  <defs>
    <style>
      .cls-1 {
        fill: none;
        stroke: #231f20;
        stroke-miterlimit: 10;
        stroke-width: 5px;
      }
    </style>
  </defs>
  <path class="cls-1" d="M35.88,58.93c4.86-4.86,12.74-4.86,17.61,0"/>
  <path class="cls-1" d="M30.44,53.49c7.87-7.87,20.62-7.87,28.48,0"/>
  <path class="cls-1" d="M30.44,53.49c-4.86,4.86-12.74,4.86-17.61,0s-4.86-12.74,0-17.61"/>
  <path class="cls-1" d="M35.88,58.93c-7.87,7.87-20.62,7.87-28.48,0-7.87-7.87-7.87-20.62,0-28.48"/>
  <path class="cls-1" d="M76.53,35.88c4.86,4.86,4.86,12.74,0,17.61s-12.74,4.86-17.61,0"/>
  <path class="cls-1" d="M81.97,30.44c7.87,7.87,7.87,20.62,0,28.48-7.87,7.87-20.62,7.87-28.48,0"/>
  <path class="cls-1" d="M81.97,30.44L58.93,7.4c-7.87-7.87-20.62-7.87-28.48,0L7.4,30.44"/>
  <path class="cls-1" d="M76.53,35.88l-23.01-23.01c-4.88-4.88-12.8-4.88-17.68,0l-23.01,23.01"/>
</svg>
